<mxfile host="app.diagrams.net" modified="2023-05-26T22:39:02.667Z" agent="Mozilla/5.0 (Windows NT 10.0; Win64; x64) AppleWebKit/537.36 (KHTML, like Gecko) Chrome/113.0.0.0 Safari/537.36" etag="yW3U---Suq2tHxQc_Z0e" version="21.3.4" type="github">
  <diagram name="Page-1" id="YkqSWrE5Lb1IFM2jDoSC">
    <mxGraphModel dx="880" dy="490" grid="1" gridSize="10" guides="1" tooltips="1" connect="1" arrows="1" fold="1" page="1" pageScale="1" pageWidth="850" pageHeight="1100" math="0" shadow="0">
      <root>
        <mxCell id="0" />
        <mxCell id="1" parent="0" />
        <mxCell id="kjZ8u0mQk69g-NRei0sq-11" value="" style="whiteSpace=wrap;html=1;aspect=fixed;" parent="1" vertex="1">
          <mxGeometry x="210" y="160" width="200" height="200" as="geometry" />
        </mxCell>
        <mxCell id="kjZ8u0mQk69g-NRei0sq-14" value="" style="whiteSpace=wrap;html=1;aspect=fixed;" parent="1" vertex="1">
          <mxGeometry x="460" y="160" width="350" height="350" as="geometry" />
        </mxCell>
        <mxCell id="kjZ8u0mQk69g-NRei0sq-30" style="edgeStyle=orthogonalEdgeStyle;rounded=0;orthogonalLoop=1;jettySize=auto;html=1;entryX=0.5;entryY=0;entryDx=0;entryDy=0;" parent="1" source="kjZ8u0mQk69g-NRei0sq-1" target="kjZ8u0mQk69g-NRei0sq-3" edge="1">
          <mxGeometry relative="1" as="geometry" />
        </mxCell>
        <mxCell id="kjZ8u0mQk69g-NRei0sq-1" value="" style="shape=image;verticalLabelPosition=bottom;verticalAlign=top;imageAspect=0;aspect=fixed;image=data:image/svg+xml,PHN2ZyB4bWxucz0iaHR0cDovL3d3dy53My5vcmcvMjAwMC9zdmciIGlkPSJkYXRhLXByaXZhY3ktaW50ZWdyYXRpb24iIHZpZXdCb3g9IjMuOTk5OTk5MDQ2MzI1NjgzNiA0IDQ4IDQ4IiB3aWR0aD0iNDgiIGhlaWdodD0iNDgiPjxkZWZzPjxzdHlsZT4uY2xzLTF7ZmlsbDojMDUzYjcwO30uY2xzLTJ7ZmlsbDojMGE2ZWQxO308L3N0eWxlPjwvZGVmcz48cGF0aCBjbGFzcz0iY2xzLTEiIGQ9Ik0yMy4yNiwzMi44M2ExMy40NzgsMTMuNDc4LDAsMCwxLS44Ny0yLjg4QTUuNjg3LDUuNjg3LDAsMCwxLDE5LDMxYTYuMSw2LjEsMCwwLDEtNi02LDYuMSw2LjEsMCwwLDEsNi02LDUuNiw1LjYsMCwwLDEsMywuNzhWMTYuNTFBOC44NjgsOC44NjgsMCwwLDAsMTksMTZhOC41ODMsOC41ODMsMCwwLDAtNi4zNiwyLjY0LDguOTgxLDguOTgxLDAsMCwwLDAsMTIuNzJBOC41ODMsOC41ODMsMCwwLDAsMTksMzRhOC42LDguNiwwLDAsMCw0LjI5LTEuMDhDMjMuMjksMzIuODksMjMuMjYsMzIuODYsMjMuMjYsMzIuODNaTTMzLjg1LDQ0LjExYy0uMTgtLjA5LS4zNi0uMjEtLjU3LS4zM2EyNi4xNDUsMjYuMTQ1LDAsMCwxLTMuNTQtMi40M0E4LjY0Miw4LjY0MiwwLDAsMSwzMSw0NnYzSDdWNDZhOC43LDguNywwLDAsMSwyLjY0LTYuMzZBOC41ODMsOC41ODMsMCwwLDEsMTYsMzdoNmE4LjY3Nyw4LjY3NywwLDAsMSw0LjUsMS4xNywxOC41NTYsMTguNTU2LDAsMCwxLTIuNC0zLjUxYy0uMDktLjE1LS4xOC0uMzMtLjI3LS41MUE5LjA0Niw5LjA0NiwwLDAsMCwyMiwzNEgxNmExMS41NiwxMS41NiwwLDAsMC00LjYyLjkzLDEyLjE4LDEyLjE4LDAsMCwwLTMuODQsMi41OCwxMi4wMTgsMTIuMDE4LDAsMCwwLTIuNTgsMy44NEExMS43MywxMS43MywwLDAsMCw0LDQ2djZIMzRWNDZBMTIuNywxMi43LDAsMCwwLDMzLjg1LDQ0LjExWiIvPjxwYXRoIGNsYXNzPSJjbHMtMiIgZD0iTTM4LjUsNy43MDlsLjk0LjY3MmExNS4xODcsMTUuMTg3LDAsMCwwLDcuODEzLDIuNTQ2TDQ5LDEwLjkzNCw0OSwyNi4yYzAsOC44NS05LjQ2OCwxMy4wNjQtOS44NjgsMTMuMjQxbC0uNjMyLjI3Mi0uNjMyLS4yNzJDMzcuNDY4LDM5LjI2MSwyOCwzNS4wNDcsMjgsMjYuMlYxMC45MzRsMS43NDctLjAwN0ExNS4xODcsMTUuMTg3LDAsMCwwLDM3LjU2LDguMzgxbC45NC0uNjcyTTM4LjUsNCwzNi43NjMsNS4yNDNsLS45NC42NzNBMTIuMjgyLDEyLjI4MiwwLDAsMSwyOS43MDksNy45bC0xLjcyMi4wMDdMMjUsNy45MjRWMjYuMmMwLDEwLjU0OCwxMC40NjksMTUuNDgyLDExLjY2MywxNi4wMWwuNjU2LjI4M0wzOC41LDQzbDEuMTgxLS41MS42MzItLjI3M0M0MS41MzEsNDEuNjc5LDUyLDM2Ljc0NSw1MiwyNi4ybDAtMTUuMjYzVjcuOTI0TDQ5LjAxLDcuOTEsNDcuMjY3LDcuOWExMi4yODgsMTIuMjg4LDAsMCwxLTYuMDg4LTEuOTg1bC0uOTQyLS42NzVMMzguNSw0WiIvPjxwYXRoIGNsYXNzPSJjbHMtMSIgZD0iTTM5LjQ0NywyNi40NGwxLjA1LDIuMTloLTQuMDJsMS4wNS0yLjE5YTIuNzU3LDIuNzU3LDAsMCwxLS42Ni0uNjYsMS42MTUsMS42MTUsMCwwLDEtLjI3LS45MywxLjY0NCwxLjY0NCwwLDAsMSwuNTctMS4zMiwxLjg4MywxLjg4MywwLDAsMSwyLjY0LDAsMS42NDQsMS42NDQsMCwwLDEsLjU3LDEuMzIsMS42MTUsMS42MTUsMCwwLDEtLjI3LjkzQTIuNzU3LDIuNzU3LDAsMCwxLDM5LjQ0NywyNi40NFoiLz48cGF0aCBjbGFzcz0iY2xzLTEiIGQ9Ik00MS4yNDcsMTYuOTNhMi44NTIsMi44NTIsMCwwLDEsLjAzLjQydjMuNzhIMzUuN1YxNy4zNWEyLjg1MiwyLjg1MiwwLDAsMSwuMDMtLjQyLDEuMTEsMS4xMSwwLDAsMSwuMjctLjY2LDIuMDM0LDIuMDM0LDAsMCwxLC44NC0uNTQsNC4zMTMsNC4zMTMsMCwwLDEsMS41OS0uMjRoLjEyYTQuMzEzLDQuMzEzLDAsMCwxLDEuNTkuMjQsMi4wMzQsMi4wMzQsMCwwLDEsLjg0LjU0QTEuMTEsMS4xMSwwLDAsMSw0MS4yNDcsMTYuOTNaIi8+PHBhdGggY2xhc3M9ImNscy0xIiBkPSJNNDcuMjQ3LDEwLjkzYTE1LjI3OCwxNS4yNzgsMCwwLDEtNy44LTIuNTVsLS45Ni0uNjYtLjkzLjY2YTE1LjI3OCwxNS4yNzgsMCwwLDEtNy44LDIuNTVoLTEuNzdWMjYuMmMwLDguODUsOS40OCwxMy4wNSw5Ljg3LDEzLjIzbC42My4yNy42Ni0uMjdjLjM5LS4xOCw5Ljg0LTQuMzgsOS44NC0xMy4yM1YxMC45M1ptLTIuMTksMTcuN2ExLjcwOSwxLjcwOSwwLDAsMS0uMywxLjA4LDEuNzg2LDEuNzg2LDAsMCwxLS42My41NCwxLjk0OSwxLjk0OSwwLDAsMS0uOTMuMjRoLTkuNDJhMS45NDksMS45NDksMCwwLDEtLjkzLS4yNCwxLjc4NiwxLjc4NiwwLDAsMS0uNjMtLjU0LDEuNzA5LDEuNzA5LDAsMCwxLS4zLTEuMDhWMjIuOTlhMS42NzUsMS42NzUsMCwwLDEsLjMtMS4wNSwxLjcwNiwxLjcwNiwwLDAsMSwuNjMtLjYsMS45MjgsMS45MjgsMCwwLDEsLjkzLS4yMWguMDNWMTcuMzVhNCw0LDAsMCwxLC4yMS0xLjI5LDIuNzQ1LDIuNzQ1LDAsMCwxLC43Mi0xLjIsNC4zODUsNC4zODUsMCwwLDEsMS40MS0uOSw2LjIxLDYuMjEsMCwwLDEsMi4yOC0uMzNoLjEyYTYuMjEsNi4yMSwwLDAsMSwyLjI4LjMzLDQuMzg1LDQuMzg1LDAsMCwxLDEuNDEuOSwyLjc0NSwyLjc0NSwwLDAsMSwuNzIsMS4yLDQsNCwwLDAsMSwuMjEsMS4yOXYzLjc4aC4wM2ExLjkyOCwxLjkyOCwwLDAsMSwuOTMuMjEsMS43MDYsMS43MDYsMCwwLDEsLjYzLjYsMS42NzUsMS42NzUsMCwwLDEsLjMsMS4wNVoiLz48L3N2Zz4=" parent="1" vertex="1">
          <mxGeometry x="60" y="130" width="48" height="48" as="geometry" />
        </mxCell>
        <mxCell id="kjZ8u0mQk69g-NRei0sq-4" style="edgeStyle=orthogonalEdgeStyle;rounded=0;orthogonalLoop=1;jettySize=auto;html=1;" parent="1" source="kjZ8u0mQk69g-NRei0sq-3" target="kjZ8u0mQk69g-NRei0sq-13" edge="1">
          <mxGeometry relative="1" as="geometry">
            <mxPoint x="338" y="278" as="targetPoint" />
          </mxGeometry>
        </mxCell>
        <mxCell id="kjZ8u0mQk69g-NRei0sq-3" value="Sistema Senior" style="shape=image;verticalLabelPosition=bottom;verticalAlign=top;imageAspect=0;aspect=fixed;image=data:image/svg+xml,PHN2ZyB4bWxucz0iaHR0cDovL3d3dy53My5vcmcvMjAwMC9zdmciIHZpZXdCb3g9Ii0wLjAwMDExNzkzOTg5Njg4MTU4MDM1IC0wLjAwMjIyMjEyMjYyNDUxNjQ4NyA0OC4wMDAxMTgyNTU2MTUyMzQgNDIuMDAyMzM4NDA5NDIzODMiIHdpZHRoPSI0OC4wMDAxMTgyNTU2MTUyMzQiIGhlaWdodD0iNDIuMDAyMzM4NDA5NDIzODMiPjxkZWZzPjxzdHlsZT4uY2xzLTF7ZmlsbDojNTk1OTU5O308L3N0eWxlPjwvZGVmcz48dGl0bGU+bGFwdG9wPC90aXRsZT48ZyBpZD0iTGF5ZXJfMiIgZGF0YS1uYW1lPSJMYXllciAyIj48ZyBpZD0ibGFwdG9wIj48cGF0aCBjbGFzcz0iY2xzLTEiIGQ9Ik00OCwzOC41MzFBMy41MjEsMy41MjEsMCwwLDEsNDQuNTMyLDQySDMuNDY5YTMuMzMyLDMuMzMyLDAsMCwxLTIuNDM4LTEuMDMxQTMuMzMyLDMuMzMyLDAsMCwxLDAsMzguNTMxTDYuODQ0LDMwSDQxLjE1N1pNOSwyN2EyLjgzMywyLjgzMywwLDAsMS0yLjE1Ni0uODkxQTIuOTYxLDIuOTYxLDAsMCwxLDYsMjRWM0EyLjg4OSwyLjg4OSwwLDAsMSw5LDBIMzlhMi45NjYsMi45NjYsMCwwLDEsMi4xMS44NDRBMi44MzcsMi44MzcsMCwwLDEsNDIsM1YyNGEzLjA0MSwzLjA0MSwwLDAsMS0zLDNabTAtM0gzOVYzSDlaTTMwLDM5bC0zLTNIMjFsLTMsM1oiLz48L2c+PC9nPjwvc3ZnPg==" parent="1" vertex="1">
          <mxGeometry x="60" y="273" width="48" height="42" as="geometry" />
        </mxCell>
        <mxCell id="kjZ8u0mQk69g-NRei0sq-12" value="SAP CPI / Gateway / PI" style="rounded=0;whiteSpace=wrap;html=1;" parent="1" vertex="1">
          <mxGeometry x="210" y="130" width="200" height="30" as="geometry" />
        </mxCell>
        <mxCell id="kjZ8u0mQk69g-NRei0sq-32" style="edgeStyle=orthogonalEdgeStyle;rounded=0;orthogonalLoop=1;jettySize=auto;html=1;" parent="1" source="kjZ8u0mQk69g-NRei0sq-16" target="kjZ8u0mQk69g-NRei0sq-13" edge="1">
          <mxGeometry relative="1" as="geometry" />
        </mxCell>
        <mxCell id="kjZ8u0mQk69g-NRei0sq-33" style="edgeStyle=orthogonalEdgeStyle;rounded=0;orthogonalLoop=1;jettySize=auto;html=1;" parent="1" source="kjZ8u0mQk69g-NRei0sq-13" target="kjZ8u0mQk69g-NRei0sq-16" edge="1">
          <mxGeometry relative="1" as="geometry" />
        </mxCell>
        <mxCell id="kjZ8u0mQk69g-NRei0sq-13" value="Conectividade" style="shape=image;verticalLabelPosition=bottom;verticalAlign=top;imageAspect=0;aspect=fixed;image=data:image/svg+xml,PHN2ZyBpZD0ic2FwLWhhbmEtY2xvdWQtY29ubmVjdG9yIiB4bWxucz0iaHR0cDovL3d3dy53My5vcmcvMjAwMC9zdmciIHZpZXdCb3g9IjAgMCA1NiA1NiI+PGRlZnM+PHN0eWxlPi5jbHMtMXtmaWxsOiMwMDkyZDE7fS5jbHMtMntmaWxsOiM1YTdhOTQ7fTwvc3R5bGU+PC9kZWZzPjx0aXRsZT5zYXAtaGFuYS1jbG91ZC1jb25uZWN0b3I8L3RpdGxlPjxwYXRoIGNsYXNzPSJjbHMtMSIgZD0iTTQxLjUsNDloLTlhMS41LDEuNSwwLDAsMCwwLDNoOWExLjUsMS41LDAsMCwwLDAtM1oiLz48cGF0aCBjbGFzcz0iY2xzLTEiIGQ9Ik00OC45OTEsMjVIMjUuMDA5QTMuMDA5LDMuMDA5LDAsMCwwLDIyLDI4LjAwOVY0Mi45OTFBMy4wMDksMy4wMDksMCwwLDAsMjUuMDA5LDQ2SDQ4Ljk5MUEzLjAwOSwzLjAwOSwwLDAsMCw1Miw0Mi45OTFWMjguMDA5QTMuMDA5LDMuMDA5LDAsMCwwLDQ4Ljk5MSwyNVptMCwxOEwyNSw0Mi45OTEsMjUuMDA5LDI4SDQ4Ljk5MWwuMDA5LjAwOVoiLz48cGF0aCBjbGFzcz0iY2xzLTIiIGQ9Ik0xOS4xMDksN2E2LjQ1Nyw2LjQ1NywwLDAsMSw1Ljg2NSw0LjAzNGwxLjMwNiwzLjI4OUwyOS4zMSwxMi41YTMuOTE5LDMuOTE5LDAsMCwxLDIuMDQzLS41OTEsMy45ODcsMy45ODcsMCwwLDEsMy45MTQsMy4yNDlsLjI4OCwxLjUyOSwxLjQxNS42NDVhNS4zNTEsNS4zNTEsMCwwLDEsMyw0LjY3SDQzYTguMzU2LDguMzU2LDAsMCwwLTQuNzg1LTcuNEE2Ljk0MSw2Ljk0MSwwLDAsMCwyNy43NjIsOS45MjgsOS40NDksOS40NDksMCwwLDAsMTkuMDU1LDRDOC43LDQuNTQ4LDkuOCwxNC42MjEsOS44LDE0LjYyMUE4LjM4Nyw4LjM4NywwLDAsMCwxMi40MSwzMC45ODZIMTl2LTNIMTIuNDFhNS4zODcsNS4zODcsMCwwLDEtMS42NzUtMTAuNTE1bDIuMzA4LS43NTlMMTIuNzgxLDE0LjNhOC4xMSw4LjExLDAsMCwxLDEuNS01LjI4NEE2LjUsNi41LDAsMCwxLDE5LjEwOSw3WiIvPjwvc3ZnPg==" parent="1" vertex="1">
          <mxGeometry x="282" y="266" width="56" height="56" as="geometry" />
        </mxCell>
        <mxCell id="kjZ8u0mQk69g-NRei0sq-15" value="S/4HANA" style="rounded=0;whiteSpace=wrap;html=1;" parent="1" vertex="1">
          <mxGeometry x="460" y="130" width="350" height="30" as="geometry" />
        </mxCell>
        <mxCell id="kjZ8u0mQk69g-NRei0sq-23" style="edgeStyle=orthogonalEdgeStyle;rounded=0;orthogonalLoop=1;jettySize=auto;html=1;" parent="1" source="kjZ8u0mQk69g-NRei0sq-16" target="kjZ8u0mQk69g-NRei0sq-19" edge="1">
          <mxGeometry relative="1" as="geometry" />
        </mxCell>
        <mxCell id="kjZ8u0mQk69g-NRei0sq-24" style="edgeStyle=orthogonalEdgeStyle;rounded=0;orthogonalLoop=1;jettySize=auto;html=1;" parent="1" source="kjZ8u0mQk69g-NRei0sq-16" target="kjZ8u0mQk69g-NRei0sq-21" edge="1">
          <mxGeometry relative="1" as="geometry" />
        </mxCell>
        <mxCell id="kjZ8u0mQk69g-NRei0sq-26" style="edgeStyle=orthogonalEdgeStyle;rounded=0;orthogonalLoop=1;jettySize=auto;html=1;" parent="1" source="kjZ8u0mQk69g-NRei0sq-16" target="kjZ8u0mQk69g-NRei0sq-20" edge="1">
          <mxGeometry relative="1" as="geometry" />
        </mxCell>
        <mxCell id="kjZ8u0mQk69g-NRei0sq-16" value="" style="shape=image;verticalLabelPosition=bottom;verticalAlign=top;imageAspect=0;aspect=fixed;image=data:image/svg+xml,PHN2ZyBpZD0iYXBpLW1hbmFnZW1lbnQiIHhtbG5zPSJodHRwOi8vd3d3LnczLm9yZy8yMDAwL3N2ZyIgdmlld0JveD0iMCAwIDU2IDU2Ij48ZGVmcz48c3R5bGU+LmNscy0xe2ZpbGw6IzA1M2I3MDt9LmNscy0ye2ZpbGw6IzBhNmVkMTt9PC9zdHlsZT48L2RlZnM+PHRpdGxlPmFwaS1tYW5hZ2VtZW50PC90aXRsZT48cGF0aCBjbGFzcz0iY2xzLTEiIGQ9Ik0zMS44NzgsMzEuMzY4YTE0LjMxNywxNC4zMTcsMCwwLDEtMi42MTgtMS41TDIzLjQ1MSwzNy41NWE3LjY1NSw3LjY1NSwwLDAsMC0yLjkwNS0uNTYyLDcuNSw3LjUsMCwxLDAsNy41LDcuNSw3LjA2LDcuMDYsMCwwLDAtMi4xNTYtNS4yNDdaTTIwLjU0Niw0OC45ODRhNC41LDQuNSwwLDEsMSw0LjUtNC41QTQuNDQxLDQuNDQxLDAsMCwxLDIwLjU0Niw0OC45ODRaIi8+PHBhdGggY2xhc3M9ImNscy0xIiBkPSJNMTksMjYuNjhjMC0uMjgyLDAtLjU2My0uMDk0LS42NTdsNi0xLjIxOC0uMDM0LS4wODdjLS40LS44LS42ODQtMi4wNDQtMS0yLjg1bC0uMDg5LjAzMi01LjcxNywxLjIxOGE3LjQsNy40LDAsMCwwLTYuNTYtNC4wM0E3LjU0LDcuNTQsMCwwLDAsNCwyNi42OGE3LjQzOSw3LjQzOSwwLDAsMCw3LjUsNy40QTcuNDQsNy40NCwwLDAsMCwxOSwyNi42OFptLTcuNSw0LjRBNC4zNjMsNC4zNjMsMCwwLDEsNywyNi42OGE0LjUsNC41LDAsMSwxLDksMEE0LjM2NCw0LjM2NCwwLDAsMSwxMS41LDMxLjA4NFoiLz48cGF0aCBjbGFzcz0iY2xzLTEiIGQ9Ik00NC45NTQsMzYuOTg4aC0uOTM3TDQyLjYxMSwzMS43NGExNC4zNjgsMTQuMzY4LDAsMCwxLTIuOTE5Ljc1NWwxLjQyLDUuMzM3YTcuNDc0LDcuNDc0LDAsMCwwLDIuOTA1LDE0LjE1MSw3LjUxMiw3LjUxMiwwLDEsMCwuOTM3LTE0Ljk5NVptNC4wMyw3Ljc3OWE0LjU2OCw0LjU2OCwwLDAsMS00Ljc4LDQuMjE3LDQuNTA3LDQuNTA3LDAsMSwxLDQuNzgtNC4yMTdaIi8+PHBhdGggY2xhc3M9ImNscy0yIiBkPSJNMzEuODM0LDMxLjM2NWExNC4xNjgsMTQuMTY4LDAsMCwwLDUuODEsMS4zMTIsMTQuMTM4LDE0LjEzOCwwLDAsMCwyLjA2Mi0uMTg3djBhMTQuMzIyLDE0LjMyMiwwLDEsMC0xNi40LTE0LjE1MywxNi4xODUsMTYuMTg1LDAsMCwwLC40NjksMy41NjFsLjEwOC40NDRhMTIuOTQ0LDEyLjk0NCwwLDAsMCwuOTgzLDIuMzc0bC4wMzQuMDg3YTE0LjEzMiwxNC4xMzIsMCwwLDAsNC4zMTEsNS4wNjFoMEExNC4zNjMsMTQuMzYzLDAsMCwwLDMxLjgzNCwzMS4zNjVabTMtNi44NDFoNS43MTZhMTEuNjY1LDExLjY2NSwwLDAsMS0yLjkwNSw0LjRBMTEuMTQ4LDExLjE0OCwwLDAsMSwzNC44MzMsMjQuNTI0Wm0tLjc1LTIuOTA1YTEyLjU5MSwxMi41OTEsMCwwLDEtLjM3NS0zLjI4LDE0LjU4OCwxNC41ODgsMCwwLDEsLjI4MS0yLjkwNmg3LjRjLjA5NCwxLjAzMS4xODcsMS44NzUuMTg3LDIuOTA2YTE3Ljc4MywxNy43ODMsMCwwLDEtLjI4MSwzLjI4Wm01LjUyOSw3Ljk2NWExNC43MjIsMTQuNzIyLDAsMCwwLDIuODEyLTUuMDZINDcuM0ExMS45LDExLjksMCwwLDEsMzkuNjEyLDI5LjU4NFpNNDguNywxNS40MzNhOS4xMjEsOS4xMjEsMCwwLDEsLjM3NCwyLjkwNiwxMy44NTcsMTMuODU3LDAsMCwxLS40NjgsMy4yOEg0My4wOGExNy44NywxNy44NywwLDAsMCwuMjgxLTMuMjhjMC0xLjAzMS0uMDk0LTEuODc1LS4xODctMi45MDZabS0xLjIxOS0yLjgxMUg0Mi41MTdhMTIuNjA1LDEyLjYwNSwwLDAsMC0zLTUuNTNBMTEuNjgxLDExLjY4MSwwLDAsMSw0Ny40ODQsMTIuNjIyWm0tNi44NDEsMGgtNS45YTEyLjQ1NSwxMi40NTUsMCwwLDEsMi45MDUtNC45NjdBMTEuNDA3LDExLjQwNywwLDAsMSw0MC42NDMsMTIuNjIyWk0zNS43Nyw3LjA5MmExNi4xMSwxNi4xMSwwLDAsMC0zLDUuNTNIMjcuOEExMS44ODksMTEuODg5LDAsMCwxLDM1Ljc3LDcuMDkyWm0tOSwxNC41MjdhOS4yNyw5LjI3LDAsMCwxLS41NjItMy4yOCwxMC4zMTksMTAuMzE5LDAsMCwxLC4zNzQtMi45MDZoNS42MjRhMTQuNTE0LDE0LjUxNCwwLDAsMC0uMjgyLDIuOTA2LDE3Ljc3OSwxNy43NzksMCwwLDAsLjI4MiwzLjI4Wm0xLjMxMiwyLjkwNWg0Ljc4YTE2LjQ1MiwxNi40NTIsMCwwLDAsMi44MTEsNS4wNkExMS43LDExLjcsMCwwLDEsMjguMDg1LDI0LjUyNFoiLz48L3N2Zz4=" parent="1" vertex="1">
          <mxGeometry x="622" y="210" width="56" height="56" as="geometry" />
        </mxCell>
        <UserObject label="Plano de contas" id="kjZ8u0mQk69g-NRei0sq-19">
          <mxCell style="shape=image;verticalLabelPosition=bottom;verticalAlign=top;imageAspect=0;aspect=fixed;image=https://digitalmarketplace-sapcpprd.s3.eu-central-1.amazonaws.com/Acb-45rkcmXA3qdz3SFxb2t5I82i3hTrgB9PP90E-gQ15FgZnPxYiXYUCAig90_2.svg" parent="1" vertex="1">
            <mxGeometry x="500" y="390" width="56" height="56" as="geometry" />
          </mxCell>
        </UserObject>
        <mxCell id="kjZ8u0mQk69g-NRei0sq-20" value="Consolidação Fiscal" style="shape=image;verticalLabelPosition=bottom;verticalAlign=top;imageAspect=0;aspect=fixed;image=https://digitalmarketplace-sapcpprd.s3.eu-central-1.amazonaws.com/Acb-45rkcmXA3qdz3SFxb2t5I82i3hTrgB9PP90E-gQ15FgZnPxYiXYUCAig90_2.svg" parent="1" vertex="1">
          <mxGeometry x="622" y="350" width="56" height="56" as="geometry" />
        </mxCell>
        <mxCell id="kjZ8u0mQk69g-NRei0sq-21" value="Centro de custo" style="shape=image;verticalLabelPosition=bottom;verticalAlign=top;imageAspect=0;aspect=fixed;image=https://digitalmarketplace-sapcpprd.s3.eu-central-1.amazonaws.com/Acb-45rkcmXA3qdz3SFxb2t5I82i3hTrgB9PP90E-gQ15FgZnPxYiXYUCAig90_2.svg" parent="1" vertex="1">
          <mxGeometry x="730" y="304" width="56" height="56" as="geometry" />
        </mxCell>
      </root>
    </mxGraphModel>
  </diagram>
</mxfile>
